<?xml version="1.0" standalone="no"?><!-- Generator: Gravit.io --><svg xmlns="http://www.w3.org/2000/svg" xmlns:xlink="http://www.w3.org/1999/xlink" style="isolation:isolate" viewBox="0 0 533 533" width="533" height="533"><defs><clipPath id="_clipPath_auuUf2IKi10FeoC20ksxB9mucMeWtds8"><rect width="533" height="533"/></clipPath></defs><g clip-path="url(#_clipPath_auuUf2IKi10FeoC20ksxB9mucMeWtds8)"><path d=" M 150 118 Q 156.651 49.538 221.538 49.538 C 286.296 49.538 254.793 49 314 49 Q 383.432 49 383 118 Q 482.308 118 507 118 C 531.692 118 533 138.994 533 153 C 533 167.006 533 428.876 533 456 C 533 483.124 510.852 483 471 483 C 431.148 483 70.296 483 36 483 C 1.704 483 0 471.893 0 443 C 0 414.107 0 181.408 0 161 C 0 140.592 3.349 118 43 118 Q 82.651 118 150 118 Z " fill="rgb(255,255,255)"/><g opacity="0.73"><path d=" M 138 300 C 138 228.803 195.803 171 267 171 C 338.197 171 396 228.803 396 300 C 396 371.197 338.197 429 267 429 C 195.803 429 138 371.197 138 300 Z " fill="none" vector-effect="non-scaling-stroke" stroke-width="40" stroke="rgb(197,14,41)" stroke-linejoin="miter" stroke-linecap="butt" stroke-miterlimit="3"/></g><g opacity="0.73"><rect x="435" y="182" width="67" height="32" transform="matrix(1,0,0,1,0,0)" fill="rgb(197,14,41)"/></g></g></svg>