<?xml version="1.0" standalone="no"?><!-- Generator: Gravit.io --><svg xmlns="http://www.w3.org/2000/svg" xmlns:xlink="http://www.w3.org/1999/xlink" style="isolation:isolate" viewBox="0 0 512 512" width="512" height="512"><defs><clipPath id="_clipPath_I3aHZSzyUVboujtnok5qhmB1c3jeDqUT"><rect width="512" height="512"/></clipPath></defs><g clip-path="url(#_clipPath_I3aHZSzyUVboujtnok5qhmB1c3jeDqUT)"><rect width="512" height="512" style="fill:rgb(197,14,41)"/><clipPath id="_clipPath_s7ZBZx7O53FK5R1YpcDCq3PYNPZg8n5Y"><rect x="0" y="0" width="512" height="512" transform="matrix(1,0,0,1,0,0)" fill="rgb(255,255,255)"/></clipPath><g clip-path="url(#_clipPath_s7ZBZx7O53FK5R1YpcDCq3PYNPZg8n5Y)"><g id="Group"><path d=" M 26 230 C 26 103.06 129.06 0 256 0 C 382.94 0 486 103.06 486 230 C 486 356.94 382.94 460 256 460 C 129.06 460 26 356.94 26 230 Z " fill="rgb(255,255,255)"/><path d=" M 256 510 L 387 419 L 125 419 L 256 510 L 256 510 Z " fill="rgb(255,255,255)"/></g></g><path d=" M 174 213 C 174 167.743 210.743 131 256 131 C 301.257 131 338 167.743 338 213 C 338 258.257 301.257 295 256 295 C 210.743 295 174 258.257 174 213 Z " fill="rgb(197,14,41)"/></g></svg>